<svg width="62" height="61" viewBox="0 0 62 61" fill="none" xmlns="http://www.w3.org/2000/svg">
<path fill-rule="evenodd" clip-rule="evenodd" d="M12.7786 0.0649121C7.95553 0.857687 4.51304 4.74751 4.51304 9.40479C4.51304 10.6411 4.66122 11.4851 5.13892 12.9695C5.7135 14.7555 6.13686 15.214 6.91553 14.894C7.42654 14.6838 7.53363 14.2533 7.25199 13.5414C6.38738 11.3555 6.13857 9.42084 6.51149 7.78204C7.30255 4.30513 10.5094 1.76956 14.1157 1.76956C17.6766 1.76956 20.9082 4.26792 21.7204 7.6488C22.0169 8.88254 21.9065 10.8906 21.4689 12.2248C20.8125 14.2263 19.6738 16.1357 17.8183 18.3459C16.7301 19.6423 14.3429 21.971 14.1022 21.971C13.8669 21.971 10.8659 18.9388 9.92651 17.7516C9.46097 17.1633 8.99603 16.6168 8.89331 16.5371C8.43129 16.1788 7.63524 16.4975 7.49048 17.0987C7.40223 17.4654 7.75971 18.0166 9.11624 19.6058C10.2734 20.9615 13.0706 23.6142 13.6829 23.9366C14.1106 24.1618 14.1212 24.1617 14.5715 23.9294C15.1335 23.6398 18.6951 20.1948 19.607 19.0591C22.4041 15.575 23.7219 12.4749 23.7163 9.39148C23.7116 6.86851 22.9014 4.86934 21.1267 3.00151C19.7131 1.51378 18.0202 0.594657 15.9137 0.170932C15.0502 -0.00271744 13.5073 -0.0548956 12.7786 0.0649121ZM13.2809 5.21652C10.8186 5.71251 9.2339 8.2041 9.91788 10.5045C10.3264 11.8787 11.2266 12.8554 12.5754 13.3883C13.5669 13.7798 14.9504 13.7322 15.9628 13.2718C16.8447 12.8708 17.6915 12.0437 18.1062 11.1784C18.3824 10.602 18.4307 10.3423 18.4307 9.43166C18.4308 8.5016 18.3848 8.26436 18.0777 7.61422C17.2608 5.88438 15.1653 4.83689 13.2809 5.21652ZM14.8623 7.01423C17.0034 7.64144 17.3029 10.571 15.3312 11.6008C14.8764 11.8384 14.6487 11.8794 13.9793 11.8446C12.9263 11.7898 12.3082 11.3939 11.8518 10.4815C11.2157 9.21046 11.6956 7.8568 13.0139 7.20309C13.7345 6.84569 14.1444 6.80385 14.8623 7.01423ZM49.7007 13.4174C46.3464 13.9696 43.065 16.5957 41.8387 19.7098C40.1545 23.9865 41.3496 28.6579 45.4578 33.8564C46.4514 35.1136 50.4835 39.0649 51.093 39.3786C51.5223 39.5995 51.5642 39.6011 51.9729 39.4105C52.8804 38.9873 57.6776 34.1413 57.9937 33.3284C58.2177 32.7523 57.7832 32.1876 57.123 32.1965C56.7515 32.2015 56.6352 32.302 55.545 33.5596C54.4504 34.8223 51.7755 37.4224 51.5712 37.4224C51.3231 37.4224 48.524 34.6819 47.3944 33.3329C44.3613 29.7108 42.9299 26.5835 42.9284 23.5756C42.9277 22.1232 43.1786 21.0736 43.8478 19.7281C44.9079 17.5974 47.0437 15.911 49.4417 15.3113C50.5755 15.0278 52.3717 15.0032 53.4691 15.2562C56.4414 15.9414 58.8365 18.0727 59.7726 20.865C60.096 21.83 60.1229 22.0462 60.1164 23.635C60.1102 25.1642 60.072 25.4779 59.7768 26.4183C59.5938 27.0013 59.1694 28.0563 58.8336 28.7629C58.2703 29.948 58.2355 30.0727 58.3832 30.3737C58.6051 30.8263 59.0259 31.0137 59.4757 30.8603C60.0965 30.6488 61.3666 27.873 61.8143 25.7497C62.0595 24.5872 62.0623 22.5771 61.8204 21.4321C60.9858 17.4812 57.7258 14.2935 53.6852 13.4774C52.7318 13.2849 50.6927 13.2541 49.7007 13.4174ZM50.5876 19.0106C49.2996 19.2574 47.9032 20.3265 47.3189 21.513C46.7136 22.7424 46.7334 24.3765 47.3683 25.5826C48.8373 28.3735 52.6019 28.9626 54.8862 26.7588C56.7095 24.9999 56.7095 22.0325 54.8862 20.2735C53.73 19.1581 52.1853 18.7043 50.5876 19.0106ZM52.4515 20.8081C53.4961 21.1099 54.4712 22.4173 54.4712 23.5162C54.4712 25.0866 52.9213 26.4909 51.3615 26.3336C49.771 26.173 48.7052 25.0423 48.7061 23.5162C48.707 21.57 50.529 20.2527 52.4515 20.8081ZM15.3865 23.9268C14.756 24.5432 15.0835 25.1363 16.3152 25.6089C17.1109 25.9141 17.2047 25.9265 17.4996 25.7646C17.9187 25.5345 18.0946 25.0501 17.906 24.6452C17.75 24.3105 16.4517 23.6353 15.9639 23.6352C15.8104 23.635 15.5506 23.7664 15.3865 23.9268ZM19.8412 25.8209C19.646 26.0241 19.5794 26.2177 19.6072 26.5006C19.6511 26.9439 20.0633 27.2794 20.9883 27.6248C21.67 27.8794 22.1797 27.715 22.3708 27.1789C22.572 26.6147 22.2902 26.2266 21.4074 25.8522C20.4898 25.4631 20.1907 25.4571 19.8412 25.8209ZM24.4106 27.5705C24.0741 27.7619 23.9256 28.2554 24.0885 28.6401C24.2297 28.9733 25.2099 29.5189 25.9151 29.6568C26.6428 29.7992 27.1936 28.7048 26.6405 28.2153C26.3127 27.9253 25.2098 27.4376 24.8915 27.442C24.7477 27.444 24.5313 27.5018 24.4106 27.5705ZM28.7232 29.6152C28.5687 29.776 28.4589 30.044 28.4589 30.2604C28.4589 30.7141 28.8142 31.0135 29.7662 31.3618C30.5672 31.6549 31.0242 31.5483 31.2496 31.0158C31.4898 30.4489 31.2436 30.0874 30.3458 29.6894C29.396 29.2683 29.0709 29.2534 28.7232 29.6152ZM33.2839 31.3739C32.9493 31.5642 32.7988 32.0587 32.9599 32.4388C33.0572 32.6685 33.3297 32.8653 33.9171 33.13C34.8873 33.5673 35.011 33.5774 35.4318 33.2538C35.6605 33.0779 35.7521 32.897 35.7521 32.6208C35.7521 32.1539 35.4405 31.8458 34.6123 31.4938C33.9589 31.2162 33.6157 31.1852 33.2839 31.3739ZM37.5965 33.4186C37.0105 34.0287 37.3423 34.6434 38.5027 35.0977C39.4509 35.4689 39.8821 35.3881 40.1345 34.792C40.3671 34.2431 40.1371 33.907 39.2471 33.4954C38.3317 33.0719 37.947 33.054 37.5965 33.4186ZM8.76739 33.4402C7.14818 33.7589 5.17283 34.6673 4.26714 35.5097C3.60942 36.1214 3.61842 36.677 4.29157 37.0174C4.69659 37.2222 4.74958 37.2024 6.29841 36.2705C7.6553 35.4539 8.80507 35.1335 10.6009 35.0713C12.4578 35.0071 13.6223 35.2466 15.2097 36.0194C16.0485 36.4278 16.4611 36.7357 17.4028 37.6559C18.7098 38.9329 19.3658 40.002 19.8525 41.6486C20.2546 43.0088 20.2275 45.1015 19.787 46.7068C19.2924 48.5091 18.4023 50.3448 17.1223 52.2017C15.9955 53.8367 13.6619 56.4362 11.9842 57.9257L10.9618 58.8333L9.24278 57.1907C4.29753 52.4649 1.83888 48.0895 1.83888 44.0143C1.83888 42.4182 2.07859 41.4288 2.86005 39.7996C3.23309 39.0219 3.25181 38.7289 2.95182 38.3666C2.67128 38.0279 2.06619 38.0072 1.70019 38.3237C1.30332 38.667 0.635757 40.1678 0.309145 41.4511C-0.670934 45.3006 0.69471 49.8463 4.18716 54.3595C5.4084 55.9378 7.2199 57.8649 8.7748 59.2398C10.3515 60.6341 10.625 60.8264 11.0402 60.833C11.4034 60.8387 12.529 59.9155 14.4272 58.0551C17.2293 55.3088 19.1221 52.8148 20.3725 50.2215C21.5383 47.804 21.9194 46.2876 21.9312 44.019C21.9399 42.3225 21.7897 41.5191 21.1696 39.9467C19.9049 36.7399 16.7658 34.1807 13.1881 33.4395C12.1644 33.2275 9.84689 33.2278 8.76739 33.4402ZM42.066 35.2645C41.7287 35.5316 41.6958 36.1299 42.0005 36.4591C42.2134 36.6892 43.0866 37.1012 43.6582 37.2413C44.1235 37.3553 44.6254 36.9249 44.6254 36.412C44.6254 35.9213 44.393 35.6837 43.5612 35.324C42.7844 34.9881 42.4327 34.9741 42.066 35.2645ZM46.4699 37.222C45.8794 37.8368 46.2067 38.4301 47.3943 38.8976C48.2014 39.2153 48.2527 39.2211 48.6173 39.0367C49.4418 38.6199 49.2217 37.7999 48.1461 37.2819C47.3061 36.8775 46.8177 36.86 46.4699 37.222ZM9.53147 39.3723C8.37343 39.7385 7.12156 40.7673 6.60983 41.7735C5.93922 43.0921 5.91491 44.7039 6.54601 46.0128C8.01668 49.0635 12.1941 49.7288 14.532 47.2848C16.8328 44.8796 16.093 41.053 13.0552 39.6462C12.3431 39.3164 12.0836 39.2611 11.1377 39.2375C10.47 39.221 9.8441 39.2734 9.53147 39.3723ZM48.9433 40.4269C48.0548 40.8953 47.7972 41.2733 48.0154 41.7884C48.1912 42.2031 48.6109 42.4287 49.0194 42.328C49.5 42.2095 50.5794 41.5705 50.7139 41.3248C50.997 40.8076 50.5156 40.0325 49.9162 40.0406C49.7807 40.0425 49.343 40.2163 48.9433 40.4269ZM12.114 41.1603C12.7999 41.4406 13.3261 41.9001 13.6712 42.5201C14.3643 43.7652 14.1706 45.1283 13.1607 46.116C11.5813 47.6603 8.96394 47.1316 8.09265 45.0925C7.88467 44.6057 7.86461 43.6122 8.04962 42.9606C8.21444 42.3802 9.30319 41.2862 9.87631 41.125C10.5004 40.9495 11.642 40.9676 12.114 41.1603ZM44.5808 42.6802C43.815 43.0863 43.5773 43.4104 43.6986 43.883C43.8905 44.631 44.5736 44.7511 45.543 44.2074C46.3103 43.7771 46.4892 43.5681 46.4892 43.1027C46.4892 42.6631 46.0878 42.294 45.6147 42.2988C45.4384 42.3004 44.9731 42.472 44.5808 42.6802ZM40.3104 44.9141C39.5967 45.3232 39.3987 45.5551 39.3987 45.9821C39.3987 46.3571 39.8546 46.8121 40.2304 46.8121C40.6144 46.8121 41.9184 46.1434 42.0682 45.8696C42.2865 45.4708 42.219 44.9407 41.9242 44.7389C41.5244 44.465 40.9933 44.5227 40.3104 44.9141ZM36.3598 47.0003C35.4554 47.4102 35.1443 47.7149 35.1443 48.1911C35.1443 48.5998 35.5921 49.0704 35.9812 49.0704C36.2126 49.0704 37.3477 48.4989 37.6968 48.2067C38.1597 47.8191 37.9005 46.9404 37.2715 46.7649C37.1339 46.7266 36.7382 46.8287 36.3598 47.0003ZM31.8426 49.3414C30.9302 49.8033 30.664 50.1925 30.9137 50.7004C31.0009 50.8777 31.2129 51.1 31.3849 51.1942C31.6697 51.3503 31.7585 51.3382 32.3854 51.0575C33.6424 50.4949 34.0017 49.844 33.3873 49.2433C32.9954 48.86 32.7648 48.8746 31.8426 49.3414ZM27.6565 51.5125C26.9796 51.8565 26.5141 52.3107 26.5141 52.6267C26.5141 52.745 26.6275 52.9827 26.7661 53.1549C27.1046 53.5758 27.5774 53.5614 28.4567 53.1031C29.442 52.5895 29.6769 52.0334 29.1329 51.5016C28.7538 51.1308 28.4023 51.1334 27.6565 51.5125ZM23.2061 53.8301C22.227 54.3243 22.0183 54.8 22.5117 55.4132C22.6616 55.5997 22.8844 55.7264 23.0621 55.7264C23.4135 55.7264 24.6935 55.1182 24.931 54.8383C25.193 54.5297 25.1354 53.9377 24.8191 53.6873C24.4358 53.3837 24.0171 53.4208 23.2061 53.8301ZM19.2209 55.9145C18.3164 56.3244 18.0054 56.6292 18.0054 57.1053C18.0054 57.5146 18.4544 57.9858 18.8423 57.9835C19.1412 57.9817 20.2615 57.4425 20.5475 57.1629C20.8632 56.8542 20.8853 56.192 20.5884 55.9371C20.2044 55.6074 19.9091 55.6025 19.2209 55.9145ZM14.771 58.2334C13.9172 58.6719 13.751 58.8563 13.751 59.3656C13.751 59.6396 13.8432 59.8211 14.0713 59.9965C14.2475 60.132 14.4526 60.2424 14.5272 60.2417C14.772 60.2397 15.9939 59.6383 16.2733 59.3824C16.6632 59.0251 16.6413 58.4312 16.2265 58.1122C15.8003 57.7842 15.6158 57.7997 14.771 58.2334Z" fill="black"/>
</svg>
